<?xml version="1.0" encoding="UTF-8" standalone="no"?><svg xmlns="http://www.w3.org/2000/svg" xmlns:xlink="http://www.w3.org/1999/xlink" contentScriptType="application/ecmascript" contentStyleType="text/css" height="69px" preserveAspectRatio="none" style="width:230px;height:69px;background:#FFFFFF;" version="1.1" viewBox="0 0 230 69" width="230px" zoomAndPan="magnify"><defs><filter height="300%" id="fxdyrplwqcsy3" width="300%" x="-1" y="-1"><feGaussianBlur result="blurOut" stdDeviation="2.0"/><feColorMatrix in="blurOut" result="blurOut2" type="matrix" values="0 0 0 0 0 0 0 0 0 0 0 0 0 0 0 0 0 0 .4 0"/><feOffset dx="4.0" dy="4.0" in="blurOut2" result="blurOut3"/><feBlend in="SourceGraphic" in2="blurOut3" mode="normal"/></filter></defs><g><!--MD5=[21b5533950c89460569402df26bf8116]
class MyClassA--><rect codeLine="2" fill="#FEFECE" filter="url(#fxdyrplwqcsy3)" height="48" id="MyClassA" style="stroke:#A80036;stroke-width:1.5;" width="87" x="7" y="7"/><ellipse cx="22" cy="23" fill="#ADD1B2" rx="11" ry="11" style="stroke:#A80036;stroke-width:1.0;"/><path d="M24.7656,18.875 Q24.9219,18.6563 25.1094,18.5469 Q25.2969,18.4375 25.5156,18.4375 Q25.8906,18.4375 26.125,18.7031 Q26.3594,18.9531 26.3594,19.5625 L26.3594,21.0156 Q26.3594,21.625 26.125,21.8906 Q25.8906,22.1563 25.5156,22.1563 Q25.1719,22.1563 24.9688,21.9531 Q24.7656,21.7656 24.6563,21.25 Q24.6094,20.8906 24.4219,20.7031 Q24.0938,20.3281 23.4844,20.1094 Q22.875,19.8906 22.25,19.8906 Q21.4844,19.8906 20.8438,20.2188 Q20.2188,20.5469 19.7188,21.2969 Q19.2344,22.0469 19.2344,23.0781 L19.2344,24.1719 Q19.2344,25.4063 20.125,26.2344 Q21.0156,27.0469 22.6094,27.0469 Q23.5469,27.0469 24.2031,26.7969 Q24.5938,26.6406 25.0156,26.2031 Q25.2813,25.9375 25.4219,25.8594 Q25.5781,25.7813 25.7813,25.7813 Q26.1094,25.7813 26.3594,26.0469 Q26.625,26.2969 26.625,26.6406 Q26.625,26.9844 26.2813,27.3906 Q25.7813,27.9688 24.9844,28.2969 Q23.9063,28.75 22.6094,28.75 Q21.0938,28.75 19.8906,28.125 Q18.9063,27.625 18.2188,26.5625 Q17.5313,25.4844 17.5313,24.2031 L17.5313,23.0469 Q17.5313,21.7188 18.1406,20.5781 Q18.7656,19.4219 19.8594,18.8125 Q20.9531,18.1875 22.1875,18.1875 Q22.9219,18.1875 23.5625,18.3594 Q24.2188,18.5156 24.7656,18.875 Z " fill="#000000"/><text fill="#000000" font-family="sans-serif" font-size="12" lengthAdjust="spacing" textLength="55" x="36" y="27.9102">MyClassA</text><line style="stroke:#A80036;stroke-width:1.5;" x1="8" x2="93" y1="39" y2="39"/><line style="stroke:#A80036;stroke-width:1.5;" x1="8" x2="93" y1="47" y2="47"/><!--MD5=[612200b43ae212761d2ff6c2167e6dfd]
class MyClassB--><rect codeLine="3" fill="#FEFECE" filter="url(#fxdyrplwqcsy3)" height="48" id="MyClassB" style="stroke:#A80036;stroke-width:1.5;" width="87" x="129" y="7"/><ellipse cx="144" cy="23" fill="#ADD1B2" rx="11" ry="11" style="stroke:#A80036;stroke-width:1.0;"/><path d="M146.7656,18.875 Q146.9219,18.6563 147.1094,18.5469 Q147.2969,18.4375 147.5156,18.4375 Q147.8906,18.4375 148.125,18.7031 Q148.3594,18.9531 148.3594,19.5625 L148.3594,21.0156 Q148.3594,21.625 148.125,21.8906 Q147.8906,22.1563 147.5156,22.1563 Q147.1719,22.1563 146.9688,21.9531 Q146.7656,21.7656 146.6563,21.25 Q146.6094,20.8906 146.4219,20.7031 Q146.0938,20.3281 145.4844,20.1094 Q144.875,19.8906 144.25,19.8906 Q143.4844,19.8906 142.8438,20.2188 Q142.2188,20.5469 141.7188,21.2969 Q141.2344,22.0469 141.2344,23.0781 L141.2344,24.1719 Q141.2344,25.4063 142.125,26.2344 Q143.0156,27.0469 144.6094,27.0469 Q145.5469,27.0469 146.2031,26.7969 Q146.5938,26.6406 147.0156,26.2031 Q147.2813,25.9375 147.4219,25.8594 Q147.5781,25.7813 147.7813,25.7813 Q148.1094,25.7813 148.3594,26.0469 Q148.625,26.2969 148.625,26.6406 Q148.625,26.9844 148.2813,27.3906 Q147.7813,27.9688 146.9844,28.2969 Q145.9063,28.75 144.6094,28.75 Q143.0938,28.75 141.8906,28.125 Q140.9063,27.625 140.2188,26.5625 Q139.5313,25.4844 139.5313,24.2031 L139.5313,23.0469 Q139.5313,21.7188 140.1406,20.5781 Q140.7656,19.4219 141.8594,18.8125 Q142.9531,18.1875 144.1875,18.1875 Q144.9219,18.1875 145.5625,18.3594 Q146.2188,18.5156 146.7656,18.875 Z " fill="#000000"/><text fill="#000000" font-family="sans-serif" font-size="12" lengthAdjust="spacing" textLength="55" x="158" y="27.9102">MyClassB</text><line style="stroke:#A80036;stroke-width:1.5;" x1="130" x2="215" y1="39" y2="39"/><line style="stroke:#A80036;stroke-width:1.5;" x1="130" x2="215" y1="47" y2="47"/><!--MD5=[b1b11113b98558dc3cfe1e2b601b180d]
@startuml "diagram1"

class MyClassA
class MyClassB

@enduml

PlantUML version 1.2021.8(Sat Jun 26 17:20:59 JST 2021)
(GPL source distribution)
Java Runtime: OpenJDK Runtime Environment
JVM: OpenJDK 64-Bit Server VM
Default Encoding: UTF-8
Language: ja
Country: JP
--></g></svg>