<?xml version="1.0" encoding="UTF-8" standalone="no"?><svg xmlns="http://www.w3.org/2000/svg" xmlns:xlink="http://www.w3.org/1999/xlink" contentScriptType="application/ecmascript" contentStyleType="text/css" height="69px" preserveAspectRatio="none" style="width:229px;height:69px;background:#FFFFFF;" version="1.1" viewBox="0 0 229 69" width="229px" zoomAndPan="magnify"><defs><filter height="300%" id="fxdyrplwqcsy3" width="300%" x="-1" y="-1"><feGaussianBlur result="blurOut" stdDeviation="2.0"/><feColorMatrix in="blurOut" result="blurOut2" type="matrix" values="0 0 0 0 0 0 0 0 0 0 0 0 0 0 0 0 0 0 .4 0"/><feOffset dx="4.0" dy="4.0" in="blurOut2" result="blurOut3"/><feBlend in="SourceGraphic" in2="blurOut3" mode="normal"/></filter></defs><g><!--MD5=[21b5533950c89460569402df26bf8116]
class MyClassA--><rect codeLine="2" fill="#FEFECE" filter="url(#fxdyrplwqcsy3)" height="48" id="MyClassA" style="stroke:#A80036;stroke-width:1.5;" width="86" x="7" y="7"/><ellipse cx="22" cy="23" fill="#ADD1B2" rx="11" ry="11" style="stroke:#A80036;stroke-width:1.0;"/><path d="M25.5156,24.3594 Q25.2969,27.7344 24.1563,28.8594 Q23.1563,29.8594 21.7813,29.8594 Q20.4063,29.8594 19.4063,28.8594 Q17.6719,27.125 17.6719,23.4844 Q17.6719,19.2656 19.5313,17.3906 Q20.5469,16.3906 21.8438,16.3906 Q23.2188,16.3906 24.0313,17.1875 Q25.5,18.6719 25.4375,21.4375 L23.4375,21.4375 Q23.375,19.1563 22.7188,18.5 Q22.4063,18.1719 21.8438,18.1719 Q21.3594,18.1719 20.9688,18.5625 Q19.7188,19.8125 19.7188,23.3594 Q19.7188,26.4375 20.7813,27.4844 Q21.2344,27.9375 21.7813,27.9375 Q22.2656,27.9375 22.7188,27.4844 Q23.3125,26.9063 23.375,24.3594 L25.5156,24.3594 Z " fill="#000000"/><text fill="#000000" font-family="sans-serif" font-size="12" lengthAdjust="spacing" textLength="54" x="36" y="27.9102">MyClassA</text><line style="stroke:#A80036;stroke-width:1.5;" x1="8" x2="92" y1="39" y2="39"/><line style="stroke:#A80036;stroke-width:1.5;" x1="8" x2="92" y1="47" y2="47"/><!--MD5=[612200b43ae212761d2ff6c2167e6dfd]
class MyClassB--><rect codeLine="3" fill="#FEFECE" filter="url(#fxdyrplwqcsy3)" height="48" id="MyClassB" style="stroke:#A80036;stroke-width:1.5;" width="87" x="128.5" y="7"/><ellipse cx="143.5" cy="23" fill="#ADD1B2" rx="11" ry="11" style="stroke:#A80036;stroke-width:1.0;"/><path d="M147.0156,24.3594 Q146.7969,27.7344 145.6563,28.8594 Q144.6563,29.8594 143.2813,29.8594 Q141.9063,29.8594 140.9063,28.8594 Q139.1719,27.125 139.1719,23.4844 Q139.1719,19.2656 141.0313,17.3906 Q142.0469,16.3906 143.3438,16.3906 Q144.7188,16.3906 145.5313,17.1875 Q147,18.6719 146.9375,21.4375 L144.9375,21.4375 Q144.875,19.1563 144.2188,18.5 Q143.9063,18.1719 143.3438,18.1719 Q142.8594,18.1719 142.4688,18.5625 Q141.2188,19.8125 141.2188,23.3594 Q141.2188,26.4375 142.2813,27.4844 Q142.7344,27.9375 143.2813,27.9375 Q143.7656,27.9375 144.2188,27.4844 Q144.8125,26.9063 144.875,24.3594 L147.0156,24.3594 Z " fill="#000000"/><text fill="#000000" font-family="sans-serif" font-size="12" lengthAdjust="spacing" textLength="55" x="157.5" y="27.9102">MyClassB</text><line style="stroke:#A80036;stroke-width:1.5;" x1="129.5" x2="214.5" y1="39" y2="39"/><line style="stroke:#A80036;stroke-width:1.5;" x1="129.5" x2="214.5" y1="47" y2="47"/><!--MD5=[8d89626873634a5c5d67aad998e1d579]
@startuml "diagram1"

class MyClassA
class MyClassB

@enduml

PlantUML version 1.2021.8(Sat Jun 26 17:20:59 JST 2021)
(GPL source distribution)
Java Runtime: OpenJDK Runtime Environment
JVM: OpenJDK 64-Bit Server VM
Default Encoding: MS932
Language: ja
Country: JP
--></g></svg>